<svg width="32" height="32" viewBox="0 0 32 32" fill="none" xmlns="http://www.w3.org/2000/svg">
<path opacity="0.2" d="M24 8V21L11 8H24Z" fill="#111111"/>
<path d="M24 7H11C10.8021 6.99984 10.6086 7.05841 10.444 7.16828C10.2794 7.27815 10.1511 7.43439 10.0754 7.61721C9.99963 7.80003 9.97983 8.00122 10.0185 8.19531C10.0571 8.38939 10.1525 8.56765 10.2925 8.7075L16.0863 14.5L7.29251 23.2925C7.1996 23.3854 7.1259 23.4957 7.07561 23.6171C7.02533 23.7385 6.99945 23.8686 6.99945 24C6.99945 24.1314 7.02533 24.2615 7.07561 24.3829C7.1259 24.5043 7.1996 24.6146 7.29251 24.7075C7.38542 24.8004 7.49572 24.8741 7.61711 24.9244C7.7385 24.9747 7.86861 25.0006 8.00001 25.0006C8.1314 25.0006 8.26151 24.9747 8.3829 24.9244C8.5043 24.8741 8.6146 24.8004 8.70751 24.7075L17.5 15.9137L23.2925 21.7075C23.4324 21.8475 23.6106 21.9429 23.8047 21.9815C23.9988 22.0202 24.2 22.0004 24.3828 21.9246C24.5656 21.8489 24.7219 21.7206 24.8317 21.556C24.9416 21.3914 25.0002 21.1979 25 21V8C25 7.73478 24.8947 7.48043 24.7071 7.29289C24.5196 7.10536 24.2652 7 24 7ZM23 18.5863L18.2075 13.7938L13.4138 9H23V18.5863Z" fill="#111111"/>
</svg>
