<svg width="32" height="33" viewBox="0 0 32 33" fill="none" xmlns="http://www.w3.org/2000/svg">
<path opacity="0.2" d="M30 16.5L24 21.5H8L2 16.5L8 11.5H24L30 16.5Z" fill="#111111"/>
<path d="M8.64001 12.2688L3.56251 16.5L8.64001 20.7313C8.74381 20.8144 8.83 20.9173 8.89353 21.0342C8.95707 21.151 8.99666 21.2793 9.01001 21.4116C9.02336 21.5439 9.01018 21.6775 8.97126 21.8047C8.93234 21.9318 8.86845 22.0499 8.78333 22.1521C8.69821 22.2542 8.59358 22.3384 8.47554 22.3996C8.35751 22.4609 8.22845 22.4979 8.09591 22.5087C7.96338 22.5194 7.83003 22.5036 7.70367 22.4622C7.57731 22.4208 7.46048 22.3546 7.36001 22.2675L1.36001 17.2675C1.24742 17.1737 1.15684 17.0562 1.09468 16.9235C1.03253 16.7908 1.00031 16.646 1.00031 16.4994C1.00031 16.3528 1.03253 16.2081 1.09468 16.0753C1.15684 15.9426 1.24742 15.8251 1.36001 15.7313L7.36001 10.7313C7.56389 10.5615 7.82685 10.4798 8.09104 10.5039C8.35524 10.528 8.59902 10.6561 8.76876 10.86C8.93849 11.0639 9.02029 11.3269 8.99614 11.5911C8.972 11.8553 8.84389 12.099 8.64001 12.2688ZM30.64 15.7313L24.64 10.7313C24.5391 10.6472 24.4225 10.5839 24.2971 10.5449C24.1717 10.5059 24.0398 10.4919 23.909 10.5039C23.7782 10.5159 23.651 10.5535 23.5347 10.6146C23.4184 10.6757 23.3153 10.7591 23.2313 10.86C23.0615 11.0639 22.9797 11.3269 23.0039 11.5911C23.028 11.8553 23.1561 12.099 23.36 12.2688L28.4375 16.5L23.36 20.7313C23.2562 20.8144 23.17 20.9173 23.1065 21.0342C23.0429 21.151 23.0033 21.2793 22.99 21.4116C22.9767 21.5439 22.9898 21.6775 23.0287 21.8047C23.0677 21.9318 23.1316 22.0499 23.2167 22.1521C23.3018 22.2542 23.4064 22.3384 23.5245 22.3996C23.6425 22.4609 23.7716 22.4979 23.9041 22.5087C24.0366 22.5194 24.17 22.5036 24.2963 22.4622C24.4227 22.4208 24.5395 22.3546 24.64 22.2675L30.64 17.2675C30.7526 17.1737 30.8432 17.0562 30.9053 16.9235C30.9675 16.7908 30.9997 16.646 30.9997 16.4994C30.9997 16.3528 30.9675 16.2081 30.9053 16.0753C30.8432 15.9426 30.7526 15.8251 30.64 15.7313ZM20.3413 4.56003C20.2178 4.51522 20.0868 4.49515 19.9556 4.50099C19.8244 4.50682 19.6956 4.53844 19.5766 4.59404C19.4576 4.64964 19.3508 4.72813 19.2621 4.82503C19.1735 4.92193 19.1048 5.03534 19.06 5.15878L11.06 27.1588C11.015 27.2823 10.9948 27.4135 11.0005 27.5448C11.0063 27.6761 11.0378 27.8051 11.0935 27.9242C11.1491 28.0433 11.2276 28.1503 11.3246 28.239C11.4216 28.3277 11.5352 28.3965 11.6588 28.4413C11.7683 28.4802 11.8837 28.5001 12 28.5C12.2054 28.5 12.4058 28.4368 12.5739 28.319C12.7421 28.2011 12.8699 28.0343 12.94 27.8413L20.94 5.84128C20.9848 5.71784 21.0049 5.58678 20.9991 5.45558C20.9932 5.32439 20.9616 5.19562 20.906 5.07665C20.8504 4.95767 20.7719 4.85081 20.675 4.76217C20.5781 4.67353 20.4647 4.60484 20.3413 4.56003Z" fill="#111111"/>
</svg>
