<svg width="32" height="32" viewBox="0 0 32 32" fill="none" xmlns="http://www.w3.org/2000/svg">
<path opacity="0.2" d="M30 9L26 13C25.4675 21.355 18.49 28 10 28C6 28 5 26.5 5 26.5C5 26.5 9 25 11 22C11 22 4.10625 18 5.0975 7C5.0975 7 10.055 12 16 13V11C16 8.25 18.25 5.96625 21 6C21.9705 6.01127 22.9175 6.29964 23.7296 6.83114C24.5417 7.36264 25.185 8.11514 25.5837 9H30Z" fill="#111111" fill-opacity="0.75"/>
<path d="M30.9237 8.6175C30.8481 8.43476 30.7199 8.27855 30.5555 8.16864C30.3911 8.05873 30.1978 8.00004 30 8H26.1962C25.6645 7.09514 24.9077 6.34329 23.9993 5.81759C23.0909 5.29189 22.062 5.01023 21.0125 5C20.2308 4.98963 19.4549 5.1358 18.7306 5.42991C18.0063 5.72402 17.3482 6.16011 16.795 6.7125C16.2249 7.27129 15.7724 7.9385 15.4642 8.67483C15.1559 9.41117 14.9981 10.2017 15 11V11.7612C9.96749 10.4337 5.85124 6.34 5.80749 6.29625C5.67332 6.1609 5.50328 6.0667 5.31738 6.02476C5.13148 5.98281 4.93747 5.99485 4.75818 6.05947C4.5789 6.12409 4.42181 6.2386 4.30543 6.3895C4.18904 6.54041 4.11819 6.72143 4.10124 6.91125C3.56374 12.885 5.29749 16.8825 6.85124 19.1837C7.6092 20.3215 8.53126 21.3408 9.58748 22.2087C7.67873 24.4 4.68124 25.5512 4.64999 25.5637C4.50888 25.6166 4.38154 25.7007 4.27748 25.8096C4.17342 25.9186 4.09534 26.0497 4.04906 26.1931C4.00278 26.3365 3.98951 26.4885 4.01023 26.6377C4.03096 26.787 4.08514 26.9296 4.16874 27.055C4.26124 27.195 4.63749 27.6862 5.55374 28.145C6.68874 28.7125 8.18499 29 9.99999 29C18.835 29 26.215 22.1975 26.97 13.445L30.7075 9.7075C30.8473 9.56757 30.9425 9.38932 30.981 9.1953C31.0194 9.00128 30.9995 8.8002 30.9237 8.6175ZM25.2987 12.2937C25.1273 12.4656 25.0242 12.694 25.0087 12.9362C24.5 20.8225 17.91 27 9.99999 27C8.67999 27 7.74998 26.825 7.09749 26.615C8.53749 25.8337 10.5425 24.49 11.8325 22.555C11.908 22.4417 11.9597 22.3141 11.9842 22.1802C12.0087 22.0462 12.0056 21.9086 11.975 21.7759C11.9445 21.6432 11.8871 21.5181 11.8065 21.4083C11.7259 21.2985 11.6237 21.2064 11.5062 21.1375C11.49 21.1275 9.89874 20.17 8.44624 17.9762C6.81749 15.5137 5.99999 12.5475 5.99999 9.13625C7.99999 10.7612 11.6562 13.2837 15.8362 13.9862C15.9794 14.01 16.1261 14.0023 16.266 13.9637C16.4059 13.9251 16.5358 13.8565 16.6465 13.7626C16.7573 13.6688 16.8462 13.552 16.9073 13.4203C16.9683 13.2886 16.9999 13.1452 17 13V11C16.9989 10.4666 17.1044 9.93828 17.3105 9.44626C17.5166 8.95424 17.819 8.5084 18.2 8.135C18.565 7.76883 18.9998 7.47969 19.4786 7.28472C19.9574 7.08975 20.4705 6.99293 20.9875 7C22.57 7.02 24.0487 7.985 24.6675 9.40125C24.7455 9.5793 24.8737 9.73077 25.0364 9.83711C25.1991 9.94345 25.3893 10.0001 25.5837 10H27.5837L25.2987 12.2937Z" fill="#111111" fill-opacity="0.75"/>
</svg>
